<svg version="1.1" xmlns="http://www.w3.org/2000/svg" xmlns:xlink="http://www.w3.org/1999/xlink" width="323" height="323" viewBox="0,0,323,323"><g transform="translate(-78.5,-18.5)"><g data-paper-data="{&quot;isPaintingLayer&quot;:true}" fill-rule="nonzero" stroke-linejoin="miter" stroke-miterlimit="10" stroke-dasharray="" stroke-dashoffset="0" style="mix-blend-mode: normal"><path d="M92.34181,336.5c-4.8832,0 -8.84181,-3.95861 -8.84181,-8.84181v-295.31638c0,-4.8832 3.95861,-8.84181 8.84181,-8.84181h295.31638c4.8832,0 8.84181,3.95861 8.84181,8.84181v295.31638c0,4.8832 -3.95861,8.84181 -8.84181,8.84181z" fill="#ffaf35" stroke="#bf8b00" stroke-width="10" stroke-linecap="butt"/><g stroke-width="7.5"><path d="M154.2863,294.59064c-9.35356,-10.89438 -9.85022,-27.6392 -1.10934,-37.40065c8.74091,-9.76143 23.40937,-8.84298 32.76293,2.05136c9.35356,10.89438 9.85022,27.6392 1.10934,37.40065c-8.74091,9.76143 -23.40936,8.84299 -32.76292,-2.05136z" fill="none" stroke="#b90000" stroke-linecap="butt"/><path d="M158.08179,273.04228c0,0 -0.62315,-4.81971 -3.01861,-7.68736c-2.14261,-2.56488 -10.68037,-8.71182 -10.68037,-8.71182c0,0 -18.09407,-4.31907 -21.01236,-14.55773c-0.33127,-1.16223 -5.64341,-27.22034 3.06165,-46.56167c6.22199,-13.82434 26.41643,-22.94661 29.4989,-22.91622c2.3827,0.02353 15.83668,-3.74974 29.91335,-3.12104c19.83801,0.886 39.95512,6.10718 39.95512,6.10718l9.82799,42.38296l-61.59296,23.79666l10.60356,20.84108z" fill="#949494" stroke="#000000" stroke-linecap="butt"/><path d="M231.89265,198.08221l-41.45533,7.40571l-13.62576,-5.94203l-21.30951,-25.50982l36.96221,-2.41496l31.62025,4.52235z" fill="#000000" stroke="#000000" stroke-linecap="round"/><path d="M180.82906,203.61455l-4.89194,1.92095" fill="none" stroke="#000000" stroke-linecap="round"/><path d="M175.88591,213.62172l7.26293,-2.04533" fill="none" stroke="#000000" stroke-linecap="round"/><path d="M181.00108,220.48585l-4.46754,0.94766" fill="none" stroke="#000000" stroke-linecap="round"/><path d="M230.7594,219.87762c0,0 -37.21038,13.26684 -55.47125,22.35015c-4.49295,2.23489 1.66189,6.06888 -1.22593,7.23986c-25.58644,10.37512 -30.61277,5.39578 -34.13443,3.41193c-8.74687,-4.92735 -18.99843,-12.07471 -19.35831,-13.91656c-0.46275,-2.3684 2.59483,-9.5545 2.59483,-9.5545l13.31947,-0.01725l18.26888,-0.72082l18.14449,-3.09182l29.6261,-10.82672l28.70042,3.24906" fill="#373737" stroke="#000000" stroke-linecap="round"/><path d="M228.93324,242.36589l-3.15228,7.44659l-39.0337,-0.7784l-8.2272,-1.66595l-2.85287,-7.56636l1.62106,-5.97524l3.84305,-4.42907l4.47396,1.59111l3.66343,4.57873l2.92773,3.81311z" fill="#000000" stroke="#000000" stroke-linecap="round"/><path d="M165.99601,256.22233l2.31975,7.96178" fill="none" stroke="#000000" stroke-linecap="round"/><path d="M179.54854,251.7072l-25.98182,7.78252" fill="none" stroke="#000000" stroke-linecap="round"/><path d="M137.67963,192.32701l-1.02447,7.66174l3.86746,5.74083l-12.67808,-1.47453l-4.51511,-13.55258l5.3932,-15.02346l6.38845,3.94429l4.54072,9.50949z" fill="#151515" stroke="#000000" stroke-linecap="round"/><path d="M144.03193,202.34164l-9.23507,5.23957l-8.73381,-7.86296l1.14887,-5.29078l4.51872,-9.03382l5.31638,-2.89422l4.59192,1.42329l4.86632,2.12216l4.41632,7.13851z" fill="none" stroke="#000000" stroke-linecap="round"/><path d="M190.38598,179.81566c8.43017,-0.74465 11.94137,2.99031 12.8245,8.7882c0.88313,5.79789 -3.42675,11.26357 -9.62643,12.20785c-6.19964,0.9443 -11.94137,-2.99033 -12.8245,-8.78823c-0.88313,-5.79789 0.94288,-11.44079 9.62643,-12.20783z" fill="#54ff00" stroke="none" stroke-linecap="butt"/><path d="M170.66008,189.37732c-3.10895,0.57091 -3.67986,-2.53804 -3.67986,-2.53804l-0.41869,-4.34905c1.57146,-4.9003 3.03558,-8.67884 6.60778,-12.43535c0,0 2.20764,-2.26218 4.46983,-0.05449c2.26217,2.20767 0.05449,4.46985 0.05449,4.46985c-2.95261,2.91984 -3.86684,6.04511 -5.11085,9.94585l0.61521,1.28145c0,0 0.57091,3.10894 -2.53803,3.67984z" fill="#54ff00" stroke="none" stroke-linecap="butt"/></g><g fill="none" stroke="#0091ff" stroke-width="15" stroke-linecap="butt"><path d="M157.74326,121.88713c22.76503,-12.24884 50.36343,-15.36904 76.76961,-6.39242c49.92231,16.97079 76.87222,70.81726 60.79297,120.8233"/><path d="M150.84286,100.00752c28.38275,-15.27148 62.79159,-19.16165 95.71402,-7.96988c62.24163,21.15867 95.84195,88.29283 75.79484,150.63884"/><path d="M141.12401,74.33423c34.95443,-18.80741 77.33024,-23.5983 117.87543,-9.8152c76.65292,26.0577 118.03295,108.73593 93.34418,185.5174"/><path d="M161.5583,143.64625c17.88928,-9.62541 39.57672,-12.07734 60.32729,-5.02331c39.23007,13.33603 60.40791,55.64978 47.77248,94.94566"/></g></g></g></svg>